<?xml version="1.0" encoding="UTF-8"?>
<svg width="344px" height="345px" viewBox="0 0 344 345" version="1.1" xmlns="http://www.w3.org/2000/svg" xmlns:xlink="http://www.w3.org/1999/xlink">
    <!-- Generator: Sketch 63.1 (92452) - https://sketch.com -->
    <title>SEO</title>
    <desc>Created with Sketch.</desc>
    <defs>
        <linearGradient x1="50%" y1="-2.48949813e-15%" x2="50%" y2="100%" id="linearGradient-1">
            <stop stop-color="#292929" offset="0%"></stop>
            <stop stop-color="#000000" offset="100%"></stop>
        </linearGradient>
        <path d="M73.013407,2.6866064 C106.18824,0.895535467 139.183771,0 172,0 C204.832174,0 237.664282,0.896405919 270.496323,2.68921776 C308.699378,4.77531668 339.208201,35.2833237 341.295323,73.4863222 C343.098441,106.490881 344,139.495441 344,172.5 C344,205.511425 343.098066,238.52285 341.294197,271.534276 L341.294197,271.534275 C339.20649,309.740047 308.693155,340.248892 270.487077,342.330977 C237.836179,344.110326 205.007154,345 172,345 C139.007428,345 106.01479,344.111111 73.0220864,342.333334 C34.4742283,340.256224 3.79947595,309.257162 2.12787429,270.689591 C0.709291429,237.959727 0,205.229864 0,172.5 C0,139.776865 0.708999838,107.053729 2.12699951,74.3305938 L2.12699924,74.3305938 C3.79813889,35.7657548 34.4685114,4.76760084 73.013407,2.6866064 Z" id="path-2"></path>
    </defs>
    <g id="Icons" stroke="none" stroke-width="1" fill="none" fill-rule="evenodd">
        <g transform="translate(-578.000000, -2358.000000)" id="SEO">
            <g transform="translate(578.000000, 2358.000000)">
                <mask id="mask-3" fill="white">
                    <use xlink:href="#path-2"></use>
                </mask>
                <use id="Rectangle" fill="url(#linearGradient-1)" xlink:href="#path-2"></use>
                <circle id="Oval-Copy" fill="#24EF77" fill-rule="nonzero" mask="url(#mask-3)" cx="-14" cy="-14" r="129"></circle>
                <circle id="Oval-Copy-4" fill="#FF1D3C" fill-rule="nonzero" mask="url(#mask-3)" cx="10.5" cy="438.5" r="220.5"></circle>
                <circle id="Oval" fill="#FF9D31" fill-rule="nonzero" mask="url(#mask-3)" cx="344" cy="6" r="113"></circle>
                <path d="M172,63 C232.751322,63 282,112.248678 282,173 C282,196.163793 274.840175,217.655318 262.612868,235.382233 L238.362129,210.824688 C244.985166,199.261381 248.440663,186.402601 248.440663,173.447859 C248.440663,131.41692 214.269634,97.2068063 172.323735,97.2068063 C130.377836,97.2068063 96.2068063,131.41692 96.2068063,173.447859 C96.2068063,215.478799 130.377836,249.688912 172.323735,249.688912 C185.713787,249.688912 198.95986,245.994412 210.766143,238.941275 L234.807267,263.318223 C216.999329,275.725074 195.349239,283 172,283 C111.248678,283 62,233.751322 62,173 C62,112.248678 111.248678,63 172,63 Z M172.381326,126.693717 C198.136681,126.693717 219.068935,147.630944 219.068935,173.381326 C219.068935,199.131709 198.136681,220.068935 172.381326,220.068935 C146.625972,220.068935 125.693717,199.131709 125.693717,173.381326 C125.693717,147.630944 146.625972,126.693717 172.381326,126.693717 Z" id="Combined-Shape" fill="#FFFFFF" fill-rule="nonzero" mask="url(#mask-3)"></path>
                <circle id="Oval-Copy-3" fill="#24EF77" fill-rule="nonzero" mask="url(#mask-3)" cx="457.5" cy="385.5" r="202.5"></circle>
                <circle id="Oval-Copy-5" fill="#FF1D3C" fill-rule="nonzero" mask="url(#mask-3)" cx="27.5" cy="166.5" r="16.5"></circle>
                <circle id="Oval-Copy-8" fill="#24EF77" fill-rule="nonzero" mask="url(#mask-3)" cx="321" cy="201" r="13"></circle>
            </g>
        </g>
    </g>
</svg>