<?xml version="1.0" encoding="UTF-8"?>
<svg xmlns="http://www.w3.org/2000/svg" xmlns:xlink="http://www.w3.org/1999/xlink" width="344" height="345" viewBox="0 0 344 345">
  <defs>
    <linearGradient id="icon-b" x1="50%" x2="50%" y1="0%" y2="100%">
      <stop offset="0%" stop-color="#FFF"/>
      <stop offset="100%" stop-color="#B4FDD2"/>
    </linearGradient>
    <path id="icon-a" d="M73.013407,2.6866064 C106.18824,0.895535467 139.183771,-3.78753344e-15 172,0 C204.832174,0 237.664282,0.896405919 270.496323,2.68921776 L270.496323,2.68921771 C308.699378,4.77531668 339.208201,35.2833237 341.295323,73.4863222 C343.098441,106.490881 344,139.495441 344,172.5 C344,205.511425 343.098066,238.52285 341.294197,271.534276 L341.294197,271.534275 C339.20649,309.740047 308.693155,340.248892 270.487077,342.330977 C237.836179,344.110326 205.007154,345 172,345 C139.007428,345 106.01479,344.111111 73.0220864,342.333334 L73.0220864,342.333335 C34.4742283,340.256224 3.79947595,309.257162 2.12787429,270.689591 C0.709291429,237.959727 1.89395185e-15,205.229864 0,172.5 C0,139.776865 0.708999838,107.053729 2.12699951,74.3305938 L2.12699924,74.3305938 C3.79813889,35.7657548 34.4685114,4.76760084 73.013407,2.6866064 Z"/>
  </defs>
  <g fill="none" fill-rule="evenodd">
    <mask id="icon-c" fill="#fff">
      <use xlink:href="#icon-a"/>
    </mask>
    <use fill="url(#icon-b)" xlink:href="#icon-a"/>
    <circle cx="-11" cy="6" r="129" fill="#24EF77" fill-rule="nonzero" mask="url(#icon-c)"/>
    <circle cx="136.5" cy="149.5" r="43.5" fill="#24EF77" fill-rule="nonzero" mask="url(#icon-c)"/>
    <circle cx="43.5" cy="176.5" r="16.5" fill="#FF1D3C" fill-rule="nonzero" mask="url(#icon-c)"/>
    <circle cx="358.5" cy="308.5" r="202.5" fill="#24EF77" fill-rule="nonzero" mask="url(#icon-c)"/>
    <circle cx="10.5" cy="444.5" r="220.5" fill="#FF1D3C" fill-rule="nonzero" mask="url(#icon-c)"/>
    <circle cx="231" cy="-17" r="113" fill="#FF9D31" fill-rule="nonzero" mask="url(#icon-c)"/>
  </g>
</svg>